<svg width="11" height="11" viewBox="0 0 11 11" fill="none" xmlns="http://www.w3.org/2000/svg">
<path opacity="0.1" d="M9.5 5.5C9.5 7.70916 7.70916 9.5 5.5 9.5C3.29086 9.5 1.5 7.70916 1.5 5.5C1.5 3.29086 3.29086 1.5 5.5 1.5C7.70916 1.5 9.5 3.29086 9.5 5.5Z" stroke="black"/>
<path d="M6.75002 4C6.75002 4 6.38047 3.5 5.49997 3.5C3.75001 3.5 3.75001 5.5 5.49997 5.5C7.24997 5.5 7.25002 7.5 5.50002 7.5C4.75002 7.5 4.25002 7 4.25002 7" stroke="black" stroke-linecap="round" stroke-linejoin="round"/>
<path d="M5.5 3V8" stroke="black" stroke-linecap="round" stroke-linejoin="round"/>
<path d="M10 5.5C10 7.9853 7.9853 10 5.5 10C3.01472 10 1 7.9853 1 5.5C1 3.01472 3.01472 1 5.5 1C7.9853 1 10 3.01472 10 5.5Z" stroke="black"/>
</svg>
