<svg width="71" height="49" viewBox="0 0 71 49" fill="none" xmlns="http://www.w3.org/2000/svg">
<path d="M21.2957 34.067L6.45389 18.77L7.2291 17.9423L11.43 22.2721C12.8687 20.736 14.5148 19.5751 16.3685 18.7891C18.208 17.9886 20.1143 17.594 22.0874 17.6053C24.0463 17.6019 25.9311 17.9911 27.7416 18.7726L16.9087 7.60759L17.6839 6.77991L32.5257 22.0769L31.7505 22.9046C29.9734 21.0731 27.8986 19.843 25.5257 19.2145C23.1384 18.5713 20.7569 18.5933 18.3809 19.2806C16.0189 19.9529 13.965 21.2212 12.219 23.0853L22.0709 33.2394L21.2957 34.067Z" fill="#1E3240"/>
<mask id="mask0_131_31" style="mask-type:luminance" maskUnits="userSpaceOnUse" x="5" y="5" width="29" height="30">
<path d="M33.2412 5.87164H5.63223V34.7696H33.2412V5.87164Z" fill="white"/>
<path d="M21.2957 34.067L6.45389 18.77L7.2291 17.9423L11.43 22.2721C12.8687 20.736 14.5148 19.5751 16.3685 18.7891C18.208 17.9886 20.1143 17.594 22.0874 17.6053C24.0463 17.6019 25.9311 17.9911 27.7416 18.7726L16.9087 7.60759L17.6839 6.77991L32.5257 22.0769L31.7505 22.9046C29.9734 21.0731 27.8986 19.843 25.5257 19.2145C23.1384 18.5713 20.7569 18.5933 18.3809 19.2806C16.0189 19.9529 13.965 21.2212 12.219 23.0853L22.0709 33.2394L21.2957 34.067Z" fill="black"/>
</mask>
<g mask="url(#mask0_131_31)">
<path d="M21.2957 34.067L20.9683 34.4166L21.3015 34.7599L21.6289 34.4105L21.2957 34.067ZM6.45389 18.77L6.12071 18.4266L5.79333 18.7761L6.12652 19.1195L6.45389 18.77ZM7.2291 17.9423L7.55647 17.5928L7.22328 17.2494L6.89591 17.5989L7.2291 17.9423ZM11.43 22.2721L11.1026 22.6216L11.4358 22.965L11.7632 22.6155L11.43 22.2721ZM16.3685 18.7891L16.5436 19.2435L16.5455 19.2426L16.5475 19.2418L16.3685 18.7891ZM22.0874 17.6053L22.0848 18.0953H22.0865H22.0882L22.0874 17.6053ZM27.7416 18.7726L27.5636 19.2258L28.0688 18.4231L27.7416 18.7726ZM16.9087 7.60759L16.5755 7.26418L16.2482 7.61369L16.5813 7.95711L16.9087 7.60759ZM17.6839 6.77991L18.0113 6.43039L17.6781 6.08698L17.3507 6.43649L17.6839 6.77991ZM32.5257 22.0769L32.859 22.4203L33.1862 22.0708L32.8531 21.7274L32.5257 22.0769ZM31.7505 22.9046L31.4231 23.2541L31.7564 23.5975L32.0836 23.248L31.7505 22.9046ZM25.5257 19.2145L25.4093 19.6891L25.4112 19.6896L25.5257 19.2145ZM18.3809 19.2806L18.5032 19.7535L18.5051 19.753L18.3809 19.2806ZM12.219 23.0853L11.8858 22.7419L11.5584 23.0914L11.8917 23.4348L12.219 23.0853ZM22.0709 33.2394L22.4041 33.5827L22.7314 33.2333L22.3982 32.8898L22.0709 33.2394ZM21.623 33.7174L6.78126 18.4205L6.12652 19.1195L20.9683 34.4166L21.623 33.7174ZM6.7871 19.1134L7.56231 18.2857L6.89591 17.5989L6.12071 18.4266L6.7871 19.1134ZM6.90173 18.2918L11.1026 22.6216L11.7574 21.9225L7.55647 17.5928L6.90173 18.2918ZM11.7632 22.6155C13.1582 21.1261 14.7509 20.0035 16.5436 19.2435L16.1935 18.3349C14.2788 19.1466 12.5792 20.346 11.0968 21.9287L11.7632 22.6155ZM16.5475 19.2418C18.33 18.466 20.1746 18.0843 22.0848 18.0953L22.09 17.1153C20.054 17.1036 18.086 17.5112 16.1895 18.3366L16.5475 19.2418ZM22.0882 18.0953C23.9858 18.092 25.8099 18.4687 27.5636 19.2258L27.9193 18.3195C26.0521 17.5135 24.1068 17.1119 22.0866 17.1153L22.0882 18.0953ZM28.0688 18.4231L17.2361 7.25808L16.5813 7.95711L27.4142 19.1222L28.0688 18.4231ZM17.2419 7.95101L18.0171 7.12333L17.3507 6.43649L16.5755 7.26418L17.2419 7.95101ZM17.3565 7.12945L32.1983 22.4264L32.8531 21.7274L18.0113 6.43039L17.3565 7.12945ZM32.1924 21.7335L31.4173 22.5612L32.0836 23.248L32.859 22.4203L32.1924 21.7335ZM32.0777 22.5551C30.2427 20.6637 28.0947 19.3896 25.6399 18.7394L25.4112 19.6896C27.7021 20.2964 29.7042 21.4824 31.4231 23.2541L32.0777 22.5551ZM25.6417 18.7399C23.1757 18.0754 20.7113 18.0982 18.2568 18.8082L18.5051 19.753C20.8025 19.0884 23.1011 19.0671 25.4093 19.6891L25.6417 18.7399ZM18.2586 18.8077C15.8151 19.5032 13.6888 20.8169 11.8858 22.7419L12.5522 23.4287C14.2412 21.6254 16.2227 20.4026 18.5032 19.7535L18.2586 18.8077ZM11.8917 23.4348L21.7435 33.5888L22.3982 32.8898L12.5464 22.7358L11.8917 23.4348ZM21.7377 32.8959L20.9625 33.7235L21.6289 34.4105L22.4041 33.5827L21.7377 32.8959Z" fill="#1E3240"/>
</g>
<path d="M38.1613 22.1667L53.6555 7.59912L54.3937 8.46319L50.0083 12.5865C51.3783 14.1901 52.3784 15.9871 53.0085 17.9776C53.6534 19.9541 53.9079 21.9748 53.772 24.0397C53.651 26.0908 53.1613 28.0393 52.3027 29.8849L63.6118 19.2523L64.3501 20.1164L48.8557 34.6839L48.1177 33.8198C49.9728 32.0756 51.2746 29.9814 52.0229 27.537C52.7864 25.0787 52.9165 22.5842 52.4132 20.0532C51.9234 17.5378 50.8472 15.307 49.1846 13.3609L38.8996 23.0308L38.1613 22.1667Z" fill="#1E3240"/>
<mask id="mask1_131_31" style="mask-type:luminance" maskUnits="userSpaceOnUse" x="37" y="6" width="29" height="30">
<path d="M65.2208 6.74786H37.4929V35.4371H65.2208V6.74786Z" fill="white"/>
<path d="M38.1613 22.1667L53.6555 7.59912L54.3937 8.46319L50.0083 12.5865C51.3783 14.1901 52.3784 15.9871 53.0085 17.9776C53.6534 19.9541 53.9079 21.9748 53.772 24.0397C53.651 26.0908 53.1613 28.0393 52.3027 29.8849L63.6118 19.2523L64.3501 20.1164L48.8557 34.6839L48.1177 33.8198C49.9728 32.0756 51.2746 29.9814 52.0229 27.537C52.7864 25.0787 52.9165 22.5842 52.4132 20.0532C51.9234 17.5378 50.8472 15.307 49.1846 13.3609L38.8996 23.0308L38.1613 22.1667Z" fill="black"/>
</mask>
<g mask="url(#mask1_131_31)">
<path d="M38.1613 22.1668L37.8495 21.8019L37.5016 22.1289L37.8133 22.4938L38.1613 22.1668ZM53.6555 7.59916L54.0034 7.27213L53.6917 6.90723L53.3439 7.23428L53.6555 7.59916ZM54.3937 8.46322L54.7055 8.82812L55.0535 8.50107L54.7417 8.1362L54.3937 8.46322ZM50.0083 12.5865L49.6965 12.2216L49.3485 12.5487L49.6603 12.9136L50.0083 12.5865ZM53.0085 17.9776L52.5652 18.132L52.5659 18.1342L52.5666 18.1363L53.0085 17.9776ZM53.772 24.0398L53.3061 24.006L53.3058 24.0078V24.0095L53.772 24.0398ZM52.3027 29.8849L51.883 29.6703L52.6145 30.2499L52.3027 29.8849ZM63.6118 19.2523L63.9598 18.9253L63.648 18.5604L63.3 18.8874L63.6118 19.2523ZM64.3501 20.1164L64.6619 20.4813L65.0096 20.1543L64.6981 19.7894L64.3501 20.1164ZM48.8557 34.684L48.508 35.011L48.8198 35.3758L49.1675 35.049L48.8557 34.684ZM48.1177 33.8198L47.8059 33.455L47.4579 33.7821L47.7697 34.1469L48.1177 33.8198ZM52.0229 27.5371L51.5789 27.3854L51.5782 27.3874L52.0229 27.5371ZM52.4132 20.0532L51.9557 20.1513L51.9561 20.1532L52.4132 20.0532ZM49.1846 13.361L49.5323 13.0339L49.2205 12.669L48.8728 12.9961L49.1846 13.361ZM38.8996 23.0308L38.5516 23.3579L38.8634 23.7228L39.2112 23.3957L38.8996 23.0308ZM38.4731 22.5317L53.9672 7.96406L53.3439 7.23428L37.8495 21.8019L38.4731 22.5317ZM53.3077 7.92621L54.046 8.79027L54.7417 8.1362L54.0034 7.27213L53.3077 7.92621ZM54.0819 8.09834L49.6965 12.2216L50.3199 12.9514L54.7055 8.82812L54.0819 8.09834ZM49.6603 12.9136C50.9888 14.4685 51.9559 16.2071 52.5652 18.132L53.4518 17.8232C52.8009 15.7672 51.7676 13.9118 50.3561 12.2595L49.6603 12.9136ZM52.5666 18.1363C53.1914 20.0516 53.4376 22.0069 53.3061 24.006L54.2379 24.0735C54.3783 21.9428 54.1153 19.8567 53.4504 17.8189L52.5666 18.1363ZM53.3058 24.0095C53.1886 25.9965 52.7145 27.882 51.883 29.6703L52.7226 30.0998C53.6078 28.1964 54.1135 26.1851 54.2382 24.0701L53.3058 24.0095ZM52.6145 30.2499L63.9236 19.6172L63.3 18.8874L51.9912 29.5201L52.6145 30.2499ZM63.264 19.5794L64.0023 20.4434L64.6981 19.7894L63.9598 18.9253L63.264 19.5794ZM64.0383 19.7515L48.5442 34.3192L49.1675 35.049L64.6619 20.4813L64.0383 19.7515ZM49.2037 34.3569L48.4655 33.493L47.7697 34.1469L48.508 35.011L49.2037 34.3569ZM48.4292 34.1849C50.3451 32.3837 51.6934 30.2156 52.4678 27.687L51.5782 27.3874C50.8556 29.7472 49.6005 31.7677 47.8059 33.455L48.4292 34.1849ZM52.4671 27.689C53.2556 25.1493 53.3904 22.5678 52.8705 19.9532L51.9561 20.1532C52.4426 22.6005 52.317 25.0084 51.5789 27.3854L52.4671 27.689ZM52.871 19.9551C52.3641 17.3529 51.2494 15.0435 49.5323 13.0339L48.8366 13.688C50.445 15.5705 51.4827 17.7227 51.9557 20.1513L52.871 19.9551ZM48.8728 12.9961L38.5878 22.6659L39.2112 23.3957L49.4963 13.7258L48.8728 12.9961ZM39.2474 22.7038L38.5091 21.8397L37.8133 22.4938L38.5516 23.3579L39.2474 22.7038Z" fill="#1E3240"/>
</g>
<path d="M26.3354 32.2148L26.2684 43.8276C26.2667 44.1248 26.3828 44.4107 26.5914 44.6224C26.7999 44.834 27.0837 44.9541 27.3805 44.9565L31.1178 44.9857C31.2647 44.9869 31.4103 44.959 31.5464 44.9039C31.6823 44.8485 31.8061 44.7669 31.9108 44.6638C32.0152 44.5606 32.0983 44.4376 32.1553 44.3021C32.2125 44.1669 32.2422 44.0214 32.2431 43.8744L32.2569 41.4905C32.2576 41.3435 32.2875 41.198 32.3445 41.0625C32.4014 40.927 32.4846 40.804 32.589 40.7006C32.6934 40.5973 32.8172 40.5157 32.9533 40.4601C33.0893 40.4047 33.235 40.3768 33.3819 40.3775L37.1129 40.4013C37.2598 40.4022 37.4051 40.4321 37.5403 40.4892C37.6758 40.5463 37.7986 40.6296 37.9018 40.7345C38.0053 40.8391 38.0868 40.963 38.1424 41.0993C38.1978 41.2355 38.2258 41.3813 38.2251 41.5285L38.2108 43.9907C38.2099 44.137 38.2382 44.2821 38.2937 44.4175C38.3493 44.553 38.4313 44.676 38.5348 44.7796C38.6382 44.883 38.7611 44.9649 38.8965 45.0205C39.0318 45.0761 39.1768 45.104 39.323 45.103L43.0673 45.0778C43.3653 45.0759 43.6505 44.9563 43.8612 44.7453C44.0716 44.5342 44.1907 44.2487 44.1924 43.9503L44.2524 33.5484C44.2566 32.8249 44.0053 32.1232 43.5428 31.5673L36.0741 22.5844C35.986 22.4785 35.876 22.3931 35.7518 22.334C35.6273 22.275 35.4916 22.2438 35.354 22.2426C35.2165 22.2414 35.0803 22.2702 34.9549 22.3271C34.8297 22.384 34.7183 22.4675 34.6284 22.5719L27.065 31.3661C26.5785 31.9318 26.0838 32.4904 25.581 33.0415L22.9284 35.9479" stroke="#AFD4E2" stroke-width="2" stroke-linecap="square" stroke-linejoin="round"/>
<path d="M43.5438 31.5709L47.2846 36.1024" stroke="#AFD4E2" stroke-width="2" stroke-linecap="square" stroke-linejoin="round"/>
</svg>
