<svg width="152" height="50" viewBox="0 0 152 50" fill="none" xmlns="http://www.w3.org/2000/svg">
<path d="M2.32654 22.1154V4.98309H3.17047V9.83232C4.73667 9.83232 6.21925 10.1605 7.6182 10.8169C9.01716 11.4569 10.2412 12.3595 11.2904 13.5246C12.3396 14.6733 13.1456 15.9944 13.7082 17.4877V4.98309H14.5521V22.1154H13.7082C13.7082 20.0641 13.2368 18.1687 12.294 16.4292C11.3513 14.6733 10.0664 13.2867 8.43933 12.2692C6.8275 11.2518 5.07122 10.7431 3.17047 10.7431V22.1154H2.32654ZM25.3233 4.61386C26.5093 4.61386 27.6042 4.93386 28.6077 5.57386C29.6113 6.19746 30.402 7.05078 30.9799 8.13386C31.5729 9.21694 31.8694 10.3985 31.8694 11.6785V15.42C31.8694 16.7 31.5729 17.8816 30.9799 18.9646C30.402 20.0477 29.6113 20.9092 28.6077 21.5492C27.6042 22.1729 26.5093 22.4846 25.3233 22.4846C24.1372 22.4846 23.0424 22.1729 22.0388 21.5492C21.0352 20.9092 20.2369 20.0477 19.6438 18.9646C19.066 17.8816 18.7771 16.7 18.7771 15.42V11.6785C18.7771 10.3985 19.066 9.21694 19.6438 8.13386C20.2369 7.05078 21.0352 6.19746 22.0388 5.57386C23.0424 4.93386 24.1372 4.61386 25.3233 4.61386ZM19.621 15.42C19.621 16.5359 19.8719 17.5698 20.3737 18.5216C20.8907 19.4569 21.5826 20.2037 22.4493 20.7616C23.3312 21.3031 24.2892 21.5739 25.3233 21.5739C26.3573 21.5739 27.3076 21.3031 28.1744 20.7616C29.0563 20.2037 29.7482 19.4569 30.25 18.5216C30.7669 17.5698 31.0255 16.5359 31.0255 15.42V11.6785C31.0255 10.5626 30.7669 9.53694 30.25 8.60155C29.7482 7.64977 29.0563 6.90309 28.1744 6.36155C27.3076 5.80361 26.3573 5.52463 25.3233 5.52463C24.2892 5.52463 23.3312 5.80361 22.4493 6.36155C21.5826 6.90309 20.8907 7.64977 20.3737 8.60155C19.8719 9.53694 19.621 10.5626 19.621 11.6785V15.42ZM37.3033 22.1154V4.98309H38.1472V21.2046H49.2095V22.1154H37.3033ZM64.246 4.98309V5.89386H59.5017V21.2046H64.246V22.1154H53.9591V21.2046H58.6806V5.89386H53.9591V4.98309H64.246ZM75.8154 4.98309C76.971 4.98309 78.0355 5.29488 79.0087 5.91848C79.9971 6.54207 80.7801 7.38719 81.358 8.45386C81.9359 9.50411 82.2247 10.6528 82.2247 11.9V15.1985C82.2247 16.4456 81.9359 17.6026 81.358 18.6692C80.7801 19.7194 79.9971 20.5564 79.0087 21.18C78.0355 21.8037 76.971 22.1154 75.8154 22.1154H69.9535V4.98309H75.8154ZM81.3808 11.9C81.3808 10.8169 81.1299 9.81592 80.6281 8.89694C80.1263 7.97796 79.442 7.24771 78.5753 6.70617C77.7237 6.16463 76.7962 5.89386 75.7926 5.89386H70.7975V21.2046H75.7926C76.7962 21.2046 77.7237 20.9339 78.5753 20.3923C79.442 19.8508 80.1263 19.1205 80.6281 18.2016C81.1299 17.2826 81.3808 16.2816 81.3808 15.1985V11.9ZM92.4256 4.98309H93.3152L99.8385 22.1154H98.9262L96.7821 16.4539H88.9587L86.7918 22.1154H85.9023L92.4256 4.98309ZM89.3008 15.5677H96.44L92.859 6.16463L89.3008 15.5677ZM104.132 4.98309L109.766 14.14L115.354 4.98309H116.358L110.176 15.1V22.1154H109.332V15.1L103.128 4.98309H104.132ZM2.32654 46.7308V29.5985H3.17047V34.4477C4.73667 34.4477 6.21925 34.776 7.6182 35.4323C9.01716 36.0723 10.2412 36.9748 11.2904 38.14C12.3396 39.2887 13.1456 40.6098 13.7082 42.1031V29.5985H14.5521V46.7308H13.7082C13.7082 44.6794 13.2368 42.7841 12.294 41.0446C11.3513 39.2887 10.0664 37.9021 8.43933 36.8846C6.8275 35.8671 5.07122 35.3585 3.17047 35.3585V46.7308H2.32654ZM30.4781 29.5985V30.5092H25.7338V45.82H30.4781V46.7308H20.1913V45.82H24.9127V30.5092H20.1913V29.5985H30.4781ZM42.0475 29.5985C43.2031 29.5985 44.2677 29.9102 45.2408 30.5339C46.2292 31.1575 47.0122 32.0025 47.5901 33.0692C48.168 34.1194 48.4568 35.2683 48.4568 36.5154V39.8139C48.4568 41.061 48.168 42.2179 47.5901 43.2846C47.0122 44.3348 46.2292 45.1717 45.2408 45.7954C44.2677 46.4191 43.2031 46.7308 42.0475 46.7308H36.1856V29.5985H42.0475ZM47.6129 36.5154C47.6129 35.4323 47.362 34.4314 46.8602 33.5123C46.3584 32.5933 45.6742 31.8631 44.8074 31.3216C43.9558 30.78 43.0283 30.5092 42.0247 30.5092H37.0296V45.82H42.0247C43.0283 45.82 43.9558 45.5492 44.8074 45.0077C45.6742 44.4662 46.3584 43.736 46.8602 42.8169C47.362 41.8979 47.6129 40.8969 47.6129 39.8139V36.5154ZM53.617 29.5985H64.7934V30.5092H54.4609V37.4508H63.4476V38.3616H54.4609V45.82H64.7934V46.7308H53.617V29.5985ZM75.5417 29.5985H76.4313L82.9546 46.7308H82.0422L79.8982 41.0692H72.0748L69.9079 46.7308H69.0184L75.5417 29.5985ZM72.4169 40.1831H79.5561L75.9751 30.78L72.4169 40.1831ZM100.386 29.5985L96.1207 46.7308H95.2311L92.859 37.2046L90.4869 46.7308H89.5973L85.3321 29.5985H86.1988L90.0307 45.0323L92.4256 35.4569L90.9659 29.5985H91.8326L93.2924 35.4569L95.6873 45.0323L99.5192 29.5985H100.386ZM121.016 29.5985L126.65 38.7554L132.238 29.5985H133.241L127.06 39.7154V46.7308H126.216V39.7154L120.012 29.5985H121.016ZM143.853 38.5339C142.561 38.2548 141.504 37.9514 140.683 37.6231C139.877 37.2785 139.238 36.8191 138.767 36.2446C138.31 35.6539 138.082 34.8991 138.082 33.98C138.082 33.0283 138.31 32.1914 138.767 31.4692C139.238 30.7471 139.892 30.1892 140.728 29.7954C141.58 29.4016 142.561 29.2046 143.67 29.2046C144.735 29.2046 145.708 29.4508 146.59 29.9431C147.487 30.4191 148.194 31.0917 148.711 31.9616C149.228 32.8314 149.487 33.8241 149.487 34.94H148.643C148.643 33.9717 148.422 33.1185 147.981 32.38C147.54 31.6416 146.94 31.0754 146.179 30.6816C145.419 30.2714 144.575 30.0662 143.648 30.0662C142.827 30.0662 142.059 30.2056 141.344 30.4846C140.629 30.7637 140.044 31.1902 139.588 31.7646C139.147 32.3391 138.926 33.061 138.926 33.9308C138.926 34.7185 139.139 35.3502 139.565 35.8262C139.991 36.2856 140.546 36.6385 141.23 36.8846C141.914 37.1308 142.872 37.3933 144.104 37.6723C145.351 37.9514 146.316 38.2221 147.001 38.4846C147.7 38.7308 148.286 39.1492 148.757 39.74C149.244 40.3308 149.487 41.1594 149.487 42.2262C149.487 43.2929 149.221 44.1954 148.688 44.9339C148.172 45.656 147.48 46.1975 146.613 46.5585C145.746 46.9194 144.803 47.1 143.785 47.1C142.522 47.1 141.412 46.8456 140.454 46.3369C139.496 45.8283 138.759 45.1144 138.242 44.1954C137.74 43.26 137.489 42.1933 137.489 40.9954H138.333C138.333 42.0456 138.546 42.9646 138.972 43.7523C139.413 44.54 140.044 45.1554 140.865 45.5985C141.686 46.0252 142.659 46.2385 143.785 46.2385C145.184 46.2385 146.339 45.8775 147.251 45.1554C148.179 44.4333 148.643 43.4487 148.643 42.2016C148.643 41.3483 148.445 40.6917 148.05 40.2323C147.654 39.7729 147.153 39.4446 146.544 39.2477C145.951 39.0344 145.054 38.7964 143.853 38.5339Z" fill="#1E3240"/>
<path d="M2.32654 22.1154V4.98309H3.17047V9.83232C4.73667 9.83232 6.21925 10.1605 7.6182 10.8169C9.01716 11.4569 10.2412 12.3595 11.2904 13.5246C12.3396 14.6733 13.1456 15.9944 13.7082 17.4877V4.98309H14.5521V22.1154H13.7082C13.7082 20.0641 13.2368 18.1687 12.294 16.4292C11.3513 14.6733 10.0664 13.2867 8.43933 12.2692C6.8275 11.2518 5.07122 10.7431 3.17047 10.7431V22.1154H2.32654ZM25.3233 4.61386C26.5093 4.61386 27.6042 4.93386 28.6077 5.57386C29.6113 6.19746 30.402 7.05078 30.9799 8.13386C31.5729 9.21694 31.8694 10.3985 31.8694 11.6785V15.42C31.8694 16.7 31.5729 17.8816 30.9799 18.9646C30.402 20.0477 29.6113 20.9092 28.6077 21.5492C27.6042 22.1729 26.5093 22.4846 25.3233 22.4846C24.1372 22.4846 23.0424 22.1729 22.0388 21.5492C21.0352 20.9092 20.2369 20.0477 19.6438 18.9646C19.066 17.8816 18.7771 16.7 18.7771 15.42V11.6785C18.7771 10.3985 19.066 9.21694 19.6438 8.13386C20.2369 7.05078 21.0352 6.19746 22.0388 5.57386C23.0424 4.93386 24.1372 4.61386 25.3233 4.61386ZM19.621 15.42C19.621 16.5359 19.8719 17.5698 20.3737 18.5216C20.8907 19.4569 21.5826 20.2037 22.4493 20.7616C23.3312 21.3031 24.2892 21.5739 25.3233 21.5739C26.3573 21.5739 27.3076 21.3031 28.1744 20.7616C29.0563 20.2037 29.7482 19.4569 30.25 18.5216C30.7669 17.5698 31.0255 16.5359 31.0255 15.42V11.6785C31.0255 10.5626 30.7669 9.53694 30.25 8.60155C29.7482 7.64977 29.0563 6.90309 28.1744 6.36155C27.3076 5.80361 26.3573 5.52463 25.3233 5.52463C24.2892 5.52463 23.3312 5.80361 22.4493 6.36155C21.5826 6.90309 20.8907 7.64977 20.3737 8.60155C19.8719 9.53694 19.621 10.5626 19.621 11.6785V15.42ZM37.3033 22.1154V4.98309H38.1472V21.2046H49.2095V22.1154H37.3033ZM64.246 4.98309V5.89386H59.5017V21.2046H64.246V22.1154H53.9591V21.2046H58.6806V5.89386H53.9591V4.98309H64.246ZM75.8154 4.98309C76.971 4.98309 78.0355 5.29488 79.0087 5.91848C79.9971 6.54207 80.7801 7.38719 81.358 8.45386C81.9359 9.50411 82.2247 10.6528 82.2247 11.9V15.1985C82.2247 16.4456 81.9359 17.6026 81.358 18.6692C80.7801 19.7194 79.9971 20.5564 79.0087 21.18C78.0355 21.8037 76.971 22.1154 75.8154 22.1154H69.9535V4.98309H75.8154ZM81.3808 11.9C81.3808 10.8169 81.1299 9.81592 80.6281 8.89694C80.1263 7.97796 79.442 7.24771 78.5753 6.70617C77.7237 6.16463 76.7962 5.89386 75.7926 5.89386H70.7975V21.2046H75.7926C76.7962 21.2046 77.7237 20.9339 78.5753 20.3923C79.442 19.8508 80.1263 19.1205 80.6281 18.2016C81.1299 17.2826 81.3808 16.2816 81.3808 15.1985V11.9ZM92.4256 4.98309H93.3152L99.8385 22.1154H98.9262L96.7821 16.4539H88.9587L86.7918 22.1154H85.9023L92.4256 4.98309ZM89.3008 15.5677H96.44L92.859 6.16463L89.3008 15.5677ZM104.132 4.98309L109.766 14.14L115.354 4.98309H116.358L110.176 15.1V22.1154H109.332V15.1L103.128 4.98309H104.132ZM2.32654 46.7308V29.5985H3.17047V34.4477C4.73667 34.4477 6.21925 34.776 7.6182 35.4323C9.01716 36.0723 10.2412 36.9748 11.2904 38.14C12.3396 39.2887 13.1456 40.6098 13.7082 42.1031V29.5985H14.5521V46.7308H13.7082C13.7082 44.6794 13.2368 42.7841 12.294 41.0446C11.3513 39.2887 10.0664 37.9021 8.43933 36.8846C6.8275 35.8671 5.07122 35.3585 3.17047 35.3585V46.7308H2.32654ZM30.4781 29.5985V30.5092H25.7338V45.82H30.4781V46.7308H20.1913V45.82H24.9127V30.5092H20.1913V29.5985H30.4781ZM42.0475 29.5985C43.2031 29.5985 44.2677 29.9102 45.2408 30.5339C46.2292 31.1575 47.0122 32.0025 47.5901 33.0692C48.168 34.1194 48.4568 35.2683 48.4568 36.5154V39.8139C48.4568 41.061 48.168 42.2179 47.5901 43.2846C47.0122 44.3348 46.2292 45.1717 45.2408 45.7954C44.2677 46.4191 43.2031 46.7308 42.0475 46.7308H36.1856V29.5985H42.0475ZM47.6129 36.5154C47.6129 35.4323 47.362 34.4314 46.8602 33.5123C46.3584 32.5933 45.6742 31.8631 44.8074 31.3216C43.9558 30.78 43.0283 30.5092 42.0247 30.5092H37.0296V45.82H42.0247C43.0283 45.82 43.9558 45.5492 44.8074 45.0077C45.6742 44.4662 46.3584 43.736 46.8602 42.8169C47.362 41.8979 47.6129 40.8969 47.6129 39.8139V36.5154ZM53.617 29.5985H64.7934V30.5092H54.4609V37.4508H63.4476V38.3616H54.4609V45.82H64.7934V46.7308H53.617V29.5985ZM75.5417 29.5985H76.4313L82.9546 46.7308H82.0422L79.8982 41.0692H72.0748L69.9079 46.7308H69.0184L75.5417 29.5985ZM72.4169 40.1831H79.5561L75.9751 30.78L72.4169 40.1831ZM100.386 29.5985L96.1207 46.7308H95.2311L92.859 37.2046L90.4869 46.7308H89.5973L85.3321 29.5985H86.1988L90.0307 45.0323L92.4256 35.4569L90.9659 29.5985H91.8326L93.2924 35.4569L95.6873 45.0323L99.5192 29.5985H100.386ZM121.016 29.5985L126.65 38.7554L132.238 29.5985H133.241L127.06 39.7154V46.7308H126.216V39.7154L120.012 29.5985H121.016ZM143.853 38.5339C142.561 38.2548 141.504 37.9514 140.683 37.6231C139.877 37.2785 139.238 36.8191 138.767 36.2446C138.31 35.6539 138.082 34.8991 138.082 33.98C138.082 33.0283 138.31 32.1914 138.767 31.4692C139.238 30.7471 139.892 30.1892 140.728 29.7954C141.58 29.4016 142.561 29.2046 143.67 29.2046C144.735 29.2046 145.708 29.4508 146.59 29.9431C147.487 30.4191 148.194 31.0917 148.711 31.9616C149.228 32.8314 149.487 33.8241 149.487 34.94H148.643C148.643 33.9717 148.422 33.1185 147.981 32.38C147.54 31.6416 146.94 31.0754 146.179 30.6816C145.419 30.2714 144.575 30.0662 143.648 30.0662C142.827 30.0662 142.059 30.2056 141.344 30.4846C140.629 30.7637 140.044 31.1902 139.588 31.7646C139.147 32.3391 138.926 33.061 138.926 33.9308C138.926 34.7185 139.139 35.3502 139.565 35.8262C139.991 36.2856 140.546 36.6385 141.23 36.8846C141.914 37.1308 142.872 37.3933 144.104 37.6723C145.351 37.9514 146.316 38.2221 147.001 38.4846C147.7 38.7308 148.286 39.1492 148.757 39.74C149.244 40.3308 149.487 41.1594 149.487 42.2262C149.487 43.2929 149.221 44.1954 148.688 44.9339C148.172 45.656 147.48 46.1975 146.613 46.5585C145.746 46.9194 144.803 47.1 143.785 47.1C142.522 47.1 141.412 46.8456 140.454 46.3369C139.496 45.8283 138.759 45.1144 138.242 44.1954C137.74 43.26 137.489 42.1933 137.489 40.9954H138.333C138.333 42.0456 138.546 42.9646 138.972 43.7523C139.413 44.54 140.044 45.1554 140.865 45.5985C141.686 46.0252 142.659 46.2385 143.785 46.2385C145.184 46.2385 146.339 45.8775 147.251 45.1554C148.179 44.4333 148.643 43.4487 148.643 42.2016C148.643 41.3483 148.445 40.6917 148.05 40.2323C147.654 39.7729 147.153 39.4446 146.544 39.2477C145.951 39.0344 145.054 38.7964 143.853 38.5339Z" fill="#1E3240"/>
<mask id="mask0_102_46" style="mask-type:luminance" maskUnits="userSpaceOnUse" x="1" y="4" width="149" height="44">
<path d="M149.862 4.03845H1.96014V47.5H149.862V4.03845Z" fill="white"/>
<path d="M2.32654 22.1154V4.98306H3.17047V9.83229C4.73667 9.83229 6.21925 10.1605 7.6182 10.8169C9.01716 11.4569 10.2412 12.3595 11.2904 13.5246C12.3396 14.6733 13.1456 15.9944 13.7082 17.4877V4.98306H14.5521V22.1154H13.7082C13.7082 20.064 13.2368 18.1687 12.294 16.4292C11.3513 14.6733 10.0664 13.2867 8.43933 12.2692C6.8275 11.2518 5.07122 10.7431 3.17047 10.7431V22.1154H2.32654ZM25.3233 4.61383C26.5093 4.61383 27.6042 4.93383 28.6077 5.57383C29.6113 6.19743 30.402 7.05075 30.9799 8.13383C31.5729 9.21691 31.8694 10.3984 31.8694 11.6784V15.42C31.8694 16.7 31.5729 17.8815 30.9799 18.9646C30.402 20.0477 29.6113 20.9092 28.6077 21.5492C27.6042 22.1729 26.5093 22.4846 25.3233 22.4846C24.1372 22.4846 23.0424 22.1729 22.0388 21.5492C21.0352 20.9092 20.2369 20.0477 19.6438 18.9646C19.066 17.8815 18.7771 16.7 18.7771 15.42V11.6784C18.7771 10.3984 19.066 9.21691 19.6438 8.13383C20.2369 7.05075 21.0352 6.19743 22.0388 5.57383C23.0424 4.93383 24.1372 4.61383 25.3233 4.61383ZM19.621 15.42C19.621 16.5359 19.8719 17.5697 20.3737 18.5215C20.8907 19.4569 21.5826 20.2036 22.4493 20.7615C23.3312 21.3031 24.2892 21.5738 25.3233 21.5738C26.3573 21.5738 27.3076 21.3031 28.1744 20.7615C29.0563 20.2036 29.7482 19.4569 30.25 18.5215C30.7669 17.5697 31.0255 16.5359 31.0255 15.42V11.6784C31.0255 10.5625 30.7669 9.53691 30.25 8.60152C29.7482 7.64973 29.0563 6.90306 28.1744 6.36152C27.3076 5.80358 26.3573 5.5246 25.3233 5.5246C24.2892 5.5246 23.3312 5.80358 22.4493 6.36152C21.5826 6.90306 20.8907 7.64973 20.3737 8.60152C19.8719 9.53691 19.621 10.5625 19.621 11.6784V15.42ZM37.3033 22.1154V4.98306H38.1472V21.2046H49.2095V22.1154H37.3033ZM64.246 4.98306V5.89383H59.5017V21.2046H64.246V22.1154H53.9591V21.2046H58.6806V5.89383H53.9591V4.98306H64.246ZM75.8154 4.98306C76.971 4.98306 78.0355 5.29485 79.0087 5.91845C79.9971 6.54204 80.7801 7.38716 81.358 8.45383C81.9359 9.50408 82.2247 10.6528 82.2247 11.9V15.1984C82.2247 16.4456 81.9359 17.6025 81.358 18.6692C80.7801 19.7194 79.9971 20.5563 79.0087 21.18C78.0355 21.8036 76.971 22.1154 75.8154 22.1154H69.9535V4.98306H75.8154ZM81.3808 11.9C81.3808 10.8169 81.1299 9.81589 80.6281 8.89691C80.1263 7.97793 79.442 7.24768 78.5753 6.70614C77.7237 6.1646 76.7962 5.89383 75.7926 5.89383H70.7975V21.2046H75.7926C76.7962 21.2046 77.7237 20.9338 78.5753 20.3923C79.442 19.8508 80.1263 19.1205 80.6281 18.2015C81.1299 17.2825 81.3808 16.2815 81.3808 15.1984V11.9ZM92.4256 4.98306H93.3152L99.8385 22.1154H98.9262L96.7821 16.4538H88.9587L86.7918 22.1154H85.9023L92.4256 4.98306ZM89.3008 15.5677H96.44L92.859 6.1646L89.3008 15.5677ZM104.132 4.98306L109.766 14.14L115.354 4.98306H116.358L110.176 15.1V22.1154H109.332V15.1L103.128 4.98306H104.132ZM2.32654 46.7308V29.5984H3.17047V34.4477C4.73667 34.4477 6.21925 34.7759 7.6182 35.4323C9.01716 36.0723 10.2412 36.9748 11.2904 38.14C12.3396 39.2886 13.1456 40.6098 13.7082 42.1031V29.5984H14.5521V46.7308H13.7082C13.7082 44.6794 13.2368 42.784 12.294 41.0446C11.3513 39.2886 10.0664 37.9021 8.43933 36.8846C6.8275 35.8671 5.07122 35.3584 3.17047 35.3584V46.7308H2.32654ZM30.4781 29.5984V30.5092H25.7338V45.82H30.4781V46.7308H20.1913V45.82H24.9127V30.5092H20.1913V29.5984H30.4781ZM42.0475 29.5984C43.2031 29.5984 44.2677 29.9102 45.2408 30.5338C46.2292 31.1575 47.0122 32.0025 47.5901 33.0692C48.168 34.1194 48.4568 35.2683 48.4568 36.5154V39.8138C48.4568 41.0609 48.168 42.2179 47.5901 43.2846C47.0122 44.3348 46.2292 45.1717 45.2408 45.7954C44.2677 46.419 43.2031 46.7308 42.0475 46.7308H36.1856V29.5984H42.0475ZM47.6129 36.5154C47.6129 35.4323 47.362 34.4313 46.8602 33.5123C46.3584 32.5933 45.6742 31.8631 44.8074 31.3215C43.9558 30.78 43.0283 30.5092 42.0247 30.5092H37.0296V45.82H42.0247C43.0283 45.82 43.9558 45.5492 44.8074 45.0077C45.6742 44.4661 46.3584 43.7359 46.8602 42.8169C47.362 41.8979 47.6129 40.8969 47.6129 39.8138V36.5154ZM53.617 29.5984H64.7934V30.5092H54.4609V37.4508H63.4476V38.3615H54.4609V45.82H64.7934V46.7308H53.617V29.5984ZM75.5417 29.5984H76.4313L82.9546 46.7308H82.0422L79.8982 41.0692H72.0748L69.9079 46.7308H69.0184L75.5417 29.5984ZM72.4169 40.1831H79.5561L75.9751 30.78L72.4169 40.1831ZM100.386 29.5984L96.1207 46.7308H95.2311L92.859 37.2046L90.4869 46.7308H89.5973L85.3321 29.5984H86.1988L90.0307 45.0323L92.4256 35.4569L90.9659 29.5984H91.8326L93.2924 35.4569L95.6873 45.0323L99.5192 29.5984H100.386ZM121.016 29.5984L126.65 38.7554L132.238 29.5984H133.241L127.06 39.7154V46.7308H126.216V39.7154L120.012 29.5984H121.016ZM143.853 38.5338C142.561 38.2548 141.504 37.9513 140.683 37.6231C139.877 37.2784 139.238 36.819 138.767 36.2446C138.31 35.6538 138.082 34.899 138.082 33.98C138.082 33.0283 138.31 32.1913 138.767 31.4692C139.238 30.7471 139.892 30.1892 140.728 29.7954C141.58 29.4015 142.561 29.2046 143.67 29.2046C144.735 29.2046 145.708 29.4508 146.59 29.9431C147.487 30.419 148.194 31.0917 148.711 31.9615C149.228 32.8313 149.487 33.824 149.487 34.94H148.643C148.643 33.9717 148.422 33.1184 147.981 32.38C147.54 31.6415 146.94 31.0754 146.179 30.6815C145.419 30.2713 144.575 30.0661 143.648 30.0661C142.827 30.0661 142.059 30.2056 141.344 30.4846C140.629 30.7636 140.044 31.1902 139.588 31.7646C139.147 32.339 138.926 33.0609 138.926 33.9308C138.926 34.7184 139.139 35.3502 139.565 35.8261C139.991 36.2856 140.546 36.6384 141.23 36.8846C141.914 37.1308 142.872 37.3933 144.104 37.6723C145.351 37.9513 146.316 38.2221 147.001 38.4846C147.7 38.7308 148.286 39.1492 148.757 39.74C149.244 40.3308 149.487 41.1594 149.487 42.2261C149.487 43.2929 149.221 44.1954 148.688 44.9338C148.172 45.6559 147.48 46.1975 146.613 46.5584C145.746 46.9194 144.803 47.1 143.785 47.1C142.522 47.1 141.412 46.8456 140.454 46.3369C139.496 45.8283 138.759 45.1144 138.242 44.1954C137.74 43.26 137.489 42.1933 137.489 40.9954H138.333C138.333 42.0456 138.546 42.9646 138.972 43.7523C139.413 44.54 140.044 45.1554 140.865 45.5984C141.686 46.0252 142.659 46.2384 143.785 46.2384C145.184 46.2384 146.339 45.8775 147.251 45.1554C148.179 44.4333 148.643 43.4486 148.643 42.2015C148.643 41.3483 148.445 40.6917 148.05 40.2323C147.654 39.7729 147.153 39.4446 146.544 39.2477C145.951 39.0344 145.054 38.7963 143.853 38.5338Z" fill="black"/>
</mask>
<g mask="url(#mask0_102_46)">
<path d="M2.32648 22.1154H1.97009V22.5H2.32648V22.1154ZM2.32648 4.98306V4.59845H1.97009V4.98306H2.32648ZM3.17041 4.98306H3.5268V4.59845H3.17041V4.98306ZM3.17041 9.83229H2.81402V10.2169H3.17041V9.83229ZM7.61815 10.8169L7.47606 11.1696L7.47755 11.1703L7.47905 11.171L7.61815 10.8169ZM11.2904 13.5246L11.0348 13.7927L11.0357 13.7936L11.0366 13.7946L11.2904 13.5246ZM13.7081 17.4877L13.378 17.6325L14.0645 17.4877H13.7081ZM13.7081 4.98306V4.59845H13.3517V4.98306H13.7081ZM14.5521 4.98306H14.9084V4.59845H14.5521V4.98306ZM14.5521 22.1154V22.5H14.9084V22.1154H14.5521ZM13.7081 22.1154H13.3517V22.5H13.7081V22.1154ZM12.294 16.4292L11.9856 16.622L11.9863 16.6234L12.294 16.4292ZM8.43927 12.2692L8.25933 12.6012L8.26059 12.602L8.43927 12.2692ZM3.17041 10.7431V10.3584H2.81402V10.7431H3.17041ZM3.17041 22.1154V22.5H3.5268V22.1154H3.17041ZM2.68287 22.1154V4.98306H1.97009V22.1154H2.68287ZM2.32648 5.36768H3.17041V4.59845H2.32648V5.36768ZM2.81402 4.98306V9.83229H3.5268V4.98306H2.81402ZM3.17041 10.2169C4.68907 10.2169 6.12315 10.5348 7.47606 11.1696L7.76026 10.4642C6.31526 9.78618 4.78418 9.44768 3.17041 9.44768V10.2169ZM7.47905 11.171C8.83467 11.7912 10.019 12.6647 11.0348 13.7927L11.546 13.2565C10.4633 12.0543 9.19954 11.1226 7.75725 10.4628L7.47905 11.171ZM11.0366 13.7946C12.053 14.9074 12.833 16.1859 13.378 17.6325L14.0383 17.3428C13.458 15.8027 12.6262 14.4392 11.5442 13.2546L11.0366 13.7946ZM14.0645 17.4877V4.98306H13.3517V17.4877H14.0645ZM13.7081 5.36768H14.5521V4.59845H13.7081V5.36768ZM14.1957 4.98306V22.1154H14.9084V4.98306H14.1957ZM14.5521 21.7308H13.7081V22.5H14.5521V21.7308ZM14.0645 22.1154C14.0645 19.9971 13.5769 18.0345 12.6016 16.235L11.9863 16.6234C12.8966 18.3029 13.3517 20.1311 13.3517 22.1154H14.0645ZM12.6023 16.2364C11.6284 14.4224 10.2988 12.9875 8.61795 11.9364L8.26059 12.602C9.83382 13.5858 11.074 14.9242 11.9856 16.622L12.6023 16.2364ZM8.61921 11.9372C6.95177 10.8847 5.13321 10.3584 3.17041 10.3584V11.1277C5.00909 11.1277 6.70312 11.6189 8.25933 12.6012L8.61921 11.9372ZM2.81402 10.7431V22.1154H3.5268V10.7431H2.81402ZM3.17041 21.7308H2.32648V22.5H3.17041V21.7308ZM28.6077 5.57383L28.4265 5.90495L28.4281 5.90606L28.4299 5.90714L28.6077 5.57383ZM30.9798 8.13383L30.671 8.32574L30.6719 8.32762L30.673 8.32951L30.9798 8.13383ZM30.9798 18.9646L30.673 18.7689L30.6719 18.7708L30.671 18.7727L30.9798 18.9646ZM28.6077 21.5492L28.7855 21.8825L28.7873 21.8815L28.7889 21.8804L28.6077 21.5492ZM22.0387 21.5492L21.8575 21.8804L21.8591 21.8815L21.8609 21.8825L22.0387 21.5492ZM19.6438 18.9646L19.335 19.1565L19.3359 19.1584L19.3369 19.1603L19.6438 18.9646ZM19.6438 8.13383L19.3369 7.93816L19.3359 7.94004L19.335 7.94193L19.6438 8.13383ZM22.0387 5.57383L22.2166 5.90714L22.2183 5.90606L22.2199 5.90495L22.0387 5.57383ZM20.3737 18.5215L20.064 18.7117L20.0658 18.7152L20.0675 18.7186L20.3737 18.5215ZM22.4493 20.7615L22.2666 21.0919L22.2698 21.0938L22.2731 21.0958L22.4493 20.7615ZM28.1743 20.7615L28.3529 21.0944L28.3545 21.0933L28.1743 20.7615ZM30.2499 18.5215L29.9425 18.327L29.9415 18.3288L30.2499 18.5215ZM30.2499 8.60153L29.9402 8.79172L29.942 8.79516L29.9438 8.79856L30.2499 8.60153ZM28.1743 6.36153L27.9917 6.69183L27.9949 6.69387L27.9981 6.69581L28.1743 6.36153ZM22.4493 6.36153L22.6278 6.69439L22.6294 6.69333L22.4493 6.36153ZM20.3737 8.60153L20.0663 8.40701L20.0652 8.40881L20.3737 8.60153ZM25.3232 4.99845C26.4467 4.99845 27.4786 5.30062 28.4265 5.90495L28.7889 5.2427C27.7295 4.56704 26.5718 4.22922 25.3232 4.22922V4.99845ZM28.4299 5.90714C29.3789 6.49689 30.1245 7.30145 30.671 8.32574L31.2886 7.94193C30.6796 6.80006 29.8436 5.89795 28.7855 5.24051L28.4299 5.90714ZM30.673 8.32951C31.233 9.35224 31.513 10.466 31.513 11.6784H32.2258C32.2258 10.3309 31.9127 9.08158 31.2867 7.93816L30.673 8.32951ZM31.513 11.6784V15.42H32.2258V11.6784H31.513ZM31.513 15.42C31.513 16.6324 31.233 17.7462 30.673 18.7689L31.2867 19.1603C31.9127 18.0169 32.2258 16.7676 32.2258 15.42H31.513ZM30.671 18.7727C30.1239 19.7979 29.3775 20.6115 28.4265 21.2181L28.7889 21.8804C29.8451 21.2069 30.6799 20.2975 31.2886 19.1565L30.671 18.7727ZM28.4299 21.2159C27.4817 21.805 26.4485 22.1 25.3232 22.1V22.8692C26.57 22.8692 27.7265 22.5406 28.7855 21.8825L28.4299 21.2159ZM25.3232 22.1C24.1979 22.1 23.1647 21.805 22.2166 21.2159L21.8609 21.8825C22.9199 22.5406 24.0764 22.8692 25.3232 22.8692V22.1ZM22.2199 21.2181C21.2682 20.6111 20.513 19.7961 19.9506 18.7689L19.3369 19.1603C19.9606 20.2992 20.8021 21.2073 21.8575 21.8804L22.2199 21.2181ZM19.9526 18.7727C19.4068 17.7494 19.1334 16.6343 19.1334 15.42H18.4207C18.4207 16.7656 18.7252 18.0136 19.335 19.1565L19.9526 18.7727ZM19.1334 15.42V11.6784H18.4207V15.42H19.1334ZM19.1334 11.6784C19.1334 10.4641 19.4068 9.34899 19.9526 8.32574L19.335 7.94193C18.7252 9.08483 18.4207 10.3328 18.4207 11.6784H19.1334ZM19.9506 8.32951C20.5127 7.30314 21.2666 6.49741 22.2166 5.90714L21.8609 5.24051C20.8037 5.89745 19.961 6.79837 19.3369 7.93816L19.9506 8.32951ZM22.2199 5.90495C23.1678 5.30062 24.1997 4.99845 25.3232 4.99845V4.22922C24.0746 4.22922 22.9169 4.56704 21.8575 5.2427L22.2199 5.90495ZM19.2646 15.42C19.2646 16.6013 19.531 17.7008 20.064 18.7117L20.6834 18.3313C20.2128 17.4386 19.9774 16.4705 19.9774 15.42H19.2646ZM20.0675 18.7186C20.615 19.7086 21.3493 20.5011 22.2666 21.0919L22.6319 20.4311C21.8158 19.9059 21.1665 19.2051 20.6798 18.3245L20.0675 18.7186ZM22.2731 21.0958C23.2098 21.6709 24.2286 21.9584 25.3232 21.9584V21.1892C24.3497 21.1892 23.4527 20.9352 22.6255 20.4273L22.2731 21.0958ZM25.3232 21.9584C26.4179 21.9584 27.43 21.6709 28.3529 21.0944L27.9958 20.4286C27.1852 20.9352 26.2967 21.1892 25.3232 21.1892V21.9584ZM28.3545 21.0933C29.2886 20.5025 30.025 19.7084 30.5584 18.7142L29.9415 18.3288C29.4712 19.2054 28.824 19.9046 27.9942 20.4298L28.3545 21.0933ZM30.5573 18.716C31.1069 17.7045 31.3818 16.6034 31.3818 15.42H30.669C30.669 16.4683 30.4271 17.4349 29.9425 18.327L30.5573 18.716ZM31.3818 15.42V11.6784H30.669V15.42H31.3818ZM31.3818 11.6784C31.3818 10.495 31.1067 9.40097 30.5561 8.40449L29.9438 8.79856C30.4271 9.67285 30.669 10.6301 30.669 11.6784H31.3818ZM30.5596 8.41131C30.0261 7.39941 29.2882 6.60297 28.3506 6.02724L27.9981 6.69581C28.8244 7.20316 29.4702 7.90004 29.9402 8.79172L30.5596 8.41131ZM28.357 6.03122C27.4336 5.43681 26.4198 5.13999 25.3232 5.13999V5.90922C26.2945 5.90922 27.1816 6.17033 27.9917 6.69183L28.357 6.03122ZM25.3232 5.13999C24.2266 5.13999 23.2063 5.43678 22.2691 6.02972L22.6294 6.69333C23.4561 6.17037 24.3519 5.90922 25.3232 5.90922V5.13999ZM22.2707 6.02866C21.3495 6.60424 20.6137 7.39908 20.0663 8.40701L20.6811 8.79602C21.1677 7.90035 21.8156 7.20191 22.6278 6.69439L22.2707 6.02866ZM20.0652 8.40881C19.531 9.40472 19.2646 10.4972 19.2646 11.6784H19.9774C19.9774 10.6279 20.2128 9.6691 20.6821 8.79424L20.0652 8.40881ZM19.2646 11.6784V15.42H19.9774V11.6784H19.2646ZM37.3032 22.1154H36.9468V22.5H37.3032V22.1154ZM37.3032 4.98306V4.59845H36.9468V4.98306H37.3032ZM38.1472 4.98306H38.5036V4.59845H38.1472V4.98306ZM38.1472 21.2046H37.7908V21.5892H38.1472V21.2046ZM49.2095 21.2046H49.5659V20.82H49.2095V21.2046ZM49.2095 22.1154V22.5H49.5659V22.1154H49.2095ZM37.6596 22.1154V4.98306H36.9468V22.1154H37.6596ZM37.3032 5.36768H38.1472V4.59845H37.3032V5.36768ZM37.7908 4.98306V21.2046H38.5036V4.98306H37.7908ZM38.1472 21.5892H49.2095V20.82H38.1472V21.5892ZM48.8531 21.2046V22.1154H49.5659V21.2046H48.8531ZM49.2095 21.7308H37.3032V22.5H49.2095V21.7308ZM64.2459 4.98306H64.6023V4.59845H64.2459V4.98306ZM64.2459 5.89383V6.27845H64.6023V5.89383H64.2459ZM59.5016 5.89383V5.50922H59.1453V5.89383H59.5016ZM59.5016 21.2046H59.1453V21.5892H59.5016V21.2046ZM64.2459 21.2046H64.6023V20.82H64.2459V21.2046ZM64.2459 22.1154V22.5H64.6023V22.1154H64.2459ZM53.9591 22.1154H53.6027V22.5H53.9591V22.1154ZM53.9591 21.2046V20.82H53.6027V21.2046H53.9591ZM58.6805 21.2046V21.5892H59.0369V21.2046H58.6805ZM58.6805 5.89383H59.0369V5.50922H58.6805V5.89383ZM53.9591 5.89383H53.6027V6.27845H53.9591V5.89383ZM53.9591 4.98306V4.59845H53.6027V4.98306H53.9591ZM63.8895 4.98306V5.89383H64.6023V4.98306H63.8895ZM64.2459 5.50922H59.5016V6.27845H64.2459V5.50922ZM59.1453 5.89383V21.2046H59.858V5.89383H59.1453ZM59.5016 21.5892H64.2459V20.82H59.5016V21.5892ZM63.8895 21.2046V22.1154H64.6023V21.2046H63.8895ZM64.2459 21.7308H53.9591V22.5H64.2459V21.7308ZM54.3155 22.1154V21.2046H53.6027V22.1154H54.3155ZM53.9591 21.5892H58.6805V20.82H53.9591V21.5892ZM59.0369 21.2046V5.89383H58.3241V21.2046H59.0369ZM58.6805 5.50922H53.9591V6.27845H58.6805V5.50922ZM54.3155 5.89383V4.98306H53.6027V5.89383H54.3155ZM53.9591 5.36768H64.2459V4.59845H53.9591V5.36768ZM79.0086 5.91845L78.8267 6.24916L78.8288 6.25049L79.0086 5.91845ZM81.3579 8.45383L81.0502 8.64795L81.0514 8.6502L81.3579 8.45383ZM81.3579 18.6692L81.6644 18.8656L81.6657 18.8633L81.3579 18.6692ZM79.0086 21.18L78.8288 20.8479L78.8267 20.8492L79.0086 21.18ZM69.9535 22.1154H69.5971V22.5H69.9535V22.1154ZM69.9535 4.98306V4.59845H69.5971V4.98306H69.9535ZM78.5752 6.70614L78.3944 7.03751L78.3954 7.03826L78.3967 7.03899L78.5752 6.70614ZM70.7974 5.89383V5.50922H70.441V5.89383H70.7974ZM70.7974 21.2046H70.441V21.5892H70.7974V21.2046ZM78.5752 20.3923L78.3967 20.0594L78.3954 20.0602L78.3944 20.0609L78.5752 20.3923ZM75.8154 5.36768C76.9084 5.36768 77.9097 5.66162 78.8267 6.24916L79.1905 5.58774C78.1611 4.92808 77.0337 4.59845 75.8154 4.59845V5.36768ZM78.8288 6.25049C79.7643 6.84072 80.5033 7.63833 81.0502 8.64795L81.6657 8.25972C81.0568 7.13599 80.2298 6.24335 79.1884 5.58641L78.8288 6.25049ZM81.0514 8.6502C81.5958 9.63972 81.8683 10.7204 81.8683 11.9H82.5811C82.5811 10.5852 82.2756 9.36845 81.6644 8.25747L81.0514 8.6502ZM81.8683 11.9V15.1984H82.5811V11.9H81.8683ZM81.8683 15.1984C81.8683 16.3781 81.5958 17.4679 81.0502 18.4751L81.6657 18.8633C82.2756 17.7372 82.5811 16.5132 82.5811 15.1984H81.8683ZM81.0514 18.4729C80.5049 19.4663 79.7656 20.2569 78.8288 20.8479L79.1884 21.5121C80.2283 20.8559 81.0554 19.9727 81.6644 18.8656L81.0514 18.4729ZM78.8267 20.8492C77.9097 21.4367 76.9084 21.7308 75.8154 21.7308V22.5C77.0337 22.5 78.1611 22.1704 79.1905 21.5108L78.8267 20.8492ZM75.8154 21.7308H69.9535V22.5H75.8154V21.7308ZM70.3099 22.1154V4.98306H69.5971V22.1154H70.3099ZM69.9535 5.36768H75.8154V4.59845H69.9535V5.36768ZM81.7371 11.9C81.7371 10.7494 81.4697 9.68074 80.9351 8.70164L80.321 9.09218C80.79 9.95103 81.0243 10.8845 81.0243 11.9H81.7371ZM80.9351 8.70164C80.4017 7.72485 79.6729 6.94753 78.7538 6.37328L78.3967 7.03899C79.211 7.54783 79.8508 8.23103 80.321 9.09218L80.9351 8.70164ZM78.7561 6.37477C77.8489 5.79781 76.8587 5.50922 75.7925 5.50922V6.27845C76.7336 6.27845 77.5986 6.53139 78.3944 7.03751L78.7561 6.37477ZM75.7925 5.50922H70.7974V6.27845H75.7925V5.50922ZM70.441 5.89383V21.2046H71.1538V5.89383H70.441ZM70.7974 21.5892H75.7925V20.82H70.7974V21.5892ZM75.7925 21.5892C76.8587 21.5892 77.8489 21.3006 78.7561 20.7236L78.3944 20.0609C77.5986 20.5671 76.7336 20.82 75.7925 20.82V21.5892ZM78.7538 20.7252C79.6729 20.1509 80.4017 19.3736 80.9351 18.3968L80.321 18.0063C79.8508 18.8674 79.211 19.5506 78.3967 20.0594L78.7538 20.7252ZM80.9351 18.3968C81.4697 17.4177 81.7371 16.3491 81.7371 15.1984H81.0243C81.0243 16.214 80.79 17.1474 80.321 18.0063L80.9351 18.3968ZM81.7371 15.1984V11.9H81.0243V15.1984H81.7371ZM92.4256 4.98306V4.59845H92.1868L92.0959 4.83687L92.4256 4.98306ZM93.3151 4.98306L93.6448 4.83687L93.5539 4.59845H93.3151V4.98306ZM99.8385 22.1154V22.5H100.37L100.168 21.9692L99.8385 22.1154ZM98.9261 22.1154L98.5963 22.2609L98.6868 22.5H98.9261V22.1154ZM96.7821 16.4538L97.1119 16.3083L97.0214 16.0692H96.7821V16.4538ZM88.9586 16.4538V16.0692H88.7202L88.6292 16.307L88.9586 16.4538ZM86.7918 22.1154V22.5H87.0302L87.1213 22.2623L86.7918 22.1154ZM85.9022 22.1154L85.5726 21.9692L85.3705 22.5H85.9022V22.1154ZM89.3008 15.5677L88.9708 15.4223L88.7703 15.9523H89.3008V15.5677ZM96.44 15.5677V15.9523H96.9717L96.7696 15.4215L96.44 15.5677ZM92.859 6.1646L93.1886 6.01839L92.8579 5.15006L92.5289 6.0192L92.859 6.1646ZM92.4256 5.36768H93.3151V4.59845H92.4256V5.36768ZM92.9855 5.12926L99.5088 22.2615L100.168 21.9692L93.6448 4.83687L92.9855 5.12926ZM99.8385 21.7308H98.9261V22.5H99.8385V21.7308ZM99.256 21.9698L97.1119 16.3083L96.4523 16.5993L98.5963 22.2609L99.256 21.9698ZM96.7821 16.0692H88.9586V16.8384H96.7821V16.0692ZM88.6292 16.307L86.4623 21.9684L87.1213 22.2623L89.2881 16.6007L88.6292 16.307ZM86.7918 21.7308H85.9022V22.5H86.7918V21.7308ZM86.2319 22.2615L92.7553 5.12926L92.0959 4.83687L85.5726 21.9692L86.2319 22.2615ZM89.3008 15.9523H96.44V15.1831H89.3008V15.9523ZM96.7696 15.4215L93.1886 6.01839L92.5293 6.31081L96.1103 15.7139L96.7696 15.4215ZM92.5289 6.0192L88.9708 15.4223L89.6308 15.7131L93.189 6.31001L92.5289 6.0192ZM104.132 4.98306L104.429 4.77031L104.323 4.59845H104.132V4.98306ZM109.766 14.14L109.469 14.3527L109.767 14.8373L110.063 14.3515L109.766 14.14ZM115.354 4.98306V4.59845H115.162L115.056 4.77151L115.354 4.98306ZM116.357 4.98306L116.655 5.19477L117.019 4.59845H116.357V4.98306ZM110.176 15.1L109.879 14.8883L109.82 14.9846V15.1H110.176ZM110.176 22.1154V22.5H110.533V22.1154H110.176ZM109.332 22.1154H108.976V22.5H109.332V22.1154ZM109.332 15.1H109.689V14.9842L109.63 14.8877L109.332 15.1ZM103.128 4.98306V4.59845H102.465L102.831 5.19533L103.128 4.98306ZM103.835 5.19581L109.469 14.3527L110.063 13.9272L104.429 4.77031L103.835 5.19581ZM110.063 14.3515L115.651 5.19462L115.056 4.77151L109.468 13.9284L110.063 14.3515ZM115.354 5.36768H116.357V4.59845H115.354V5.36768ZM116.06 4.77133L109.879 14.8883L110.474 15.3117L116.655 5.19477L116.06 4.77133ZM109.82 15.1V22.1154H110.533V15.1H109.82ZM110.176 21.7308H109.332V22.5H110.176V21.7308ZM109.689 22.1154V15.1H108.976V22.1154H109.689ZM109.63 14.8877L103.426 4.77079L102.831 5.19533L109.035 15.3123L109.63 14.8877ZM103.128 5.36768H104.132V4.59845H103.128V5.36768ZM2.32648 46.7308H1.97009V47.1154H2.32648V46.7308ZM2.32648 29.5984V29.2138H1.97009V29.5984H2.32648ZM3.17041 29.5984H3.5268V29.2138H3.17041V29.5984ZM3.17041 34.4477H2.81402V34.8323H3.17041V34.4477ZM7.61815 35.4323L7.47606 35.785L7.47755 35.7858L7.47905 35.7863L7.61815 35.4323ZM11.2904 38.14L11.0348 38.4081L11.0357 38.409L11.0366 38.41L11.2904 38.14ZM13.7081 42.1031L13.378 42.2479L14.0645 42.1031H13.7081ZM13.7081 29.5984V29.2138H13.3517V29.5984H13.7081ZM14.5521 29.5984H14.9084V29.2138H14.5521V29.5984ZM14.5521 46.7308V47.1154H14.9084V46.7308H14.5521ZM13.7081 46.7308H13.3517V47.1154H13.7081V46.7308ZM12.294 41.0446L11.9856 41.2375L11.9863 41.2388L12.294 41.0446ZM8.43927 36.8846L8.25933 37.2165L8.26059 37.2173L8.43927 36.8846ZM3.17041 35.3584V34.9738H2.81402V35.3584H3.17041ZM3.17041 46.7308V47.1154H3.5268V46.7308H3.17041ZM2.68287 46.7308V29.5984H1.97009V46.7308H2.68287ZM2.32648 29.9831H3.17041V29.2138H2.32648V29.9831ZM2.81402 29.5984V34.4477H3.5268V29.5984H2.81402ZM3.17041 34.8323C4.68907 34.8323 6.12315 35.1502 7.47606 35.785L7.76026 35.0796C6.31526 34.4015 4.78418 34.0631 3.17041 34.0631V34.8323ZM7.47905 35.7863C8.83467 36.4065 10.019 37.28 11.0348 38.4081L11.546 37.8719C10.4633 36.6696 9.19954 35.7381 7.75725 35.0783L7.47905 35.7863ZM11.0366 38.41C12.053 39.5229 12.833 40.8013 13.378 42.2479L14.0383 41.9583C13.458 40.4181 12.6262 39.0546 11.5442 37.87L11.0366 38.41ZM14.0645 42.1031V29.5984H13.3517V42.1031H14.0645ZM13.7081 29.9831H14.5521V29.2138H13.7081V29.9831ZM14.1957 29.5984V46.7308H14.9084V29.5984H14.1957ZM14.5521 46.3461H13.7081V47.1154H14.5521V46.3461ZM14.0645 46.7308C14.0645 44.6125 13.5769 42.65 12.6016 40.8504L11.9863 41.2388C12.8966 42.9183 13.3517 44.7465 13.3517 46.7308H14.0645ZM12.6023 40.8517C11.6284 39.0379 10.2988 37.6029 8.61795 36.5519L8.26059 37.2173C9.83382 38.2011 11.074 39.5396 11.9856 41.2375L12.6023 40.8517ZM8.61921 36.5527C6.95177 35.5 5.13321 34.9738 3.17041 34.9738V35.7431C5.00909 35.7431 6.70312 36.2342 8.25933 37.2165L8.61921 36.5527ZM2.81402 35.3584V46.7308H3.5268V35.3584H2.81402ZM3.17041 46.3461H2.32648V47.1154H3.17041V46.3461ZM30.478 29.5984H30.8344V29.2138H30.478V29.5984ZM30.478 30.5092V30.8938H30.8344V30.5092H30.478ZM25.7338 30.5092V30.1246H25.3774V30.5092H25.7338ZM25.7338 45.82H25.3774V46.2046H25.7338V45.82ZM30.478 45.82H30.8344V45.4354H30.478V45.82ZM30.478 46.7308V47.1154H30.8344V46.7308H30.478ZM20.1912 46.7308H19.8348V47.1154H20.1912V46.7308ZM20.1912 45.82V45.4354H19.8348V45.82H20.1912ZM24.9126 45.82V46.2046H25.269V45.82H24.9126ZM24.9126 30.5092H25.269V30.1246H24.9126V30.5092ZM20.1912 30.5092H19.8348V30.8938H20.1912V30.5092ZM20.1912 29.5984V29.2138H19.8348V29.5984H20.1912ZM30.1216 29.5984V30.5092H30.8344V29.5984H30.1216ZM30.478 30.1246H25.7338V30.8938H30.478V30.1246ZM25.3774 30.5092V45.82H26.0902V30.5092H25.3774ZM25.7338 46.2046H30.478V45.4354H25.7338V46.2046ZM30.1216 45.82V46.7308H30.8344V45.82H30.1216ZM30.478 46.3461H20.1912V47.1154H30.478V46.3461ZM20.5476 46.7308V45.82H19.8348V46.7308H20.5476ZM20.1912 46.2046H24.9126V45.4354H20.1912V46.2046ZM25.269 45.82V30.5092H24.5563V45.82H25.269ZM24.9126 30.1246H20.1912V30.8938H24.9126V30.1246ZM20.5476 30.5092V29.5984H19.8348V30.5092H20.5476ZM20.1912 29.9831H30.478V29.2138H20.1912V29.9831ZM45.2407 30.5338L45.0588 30.8646L45.0609 30.8659L45.2407 30.5338ZM47.59 33.0692L47.2823 33.2633L47.2836 33.2656L47.59 33.0692ZM47.59 43.2846L47.8965 43.4809L47.8978 43.4786L47.59 43.2846ZM45.2407 45.7954L45.0609 45.4633L45.0588 45.4646L45.2407 45.7954ZM36.1856 46.7308H35.8292V47.1154H36.1856V46.7308ZM36.1856 29.5984V29.2138H35.8292V29.5984H36.1856ZM44.8074 31.3215L44.6265 31.6529L44.6276 31.6536L44.6288 31.6544L44.8074 31.3215ZM37.0295 30.5092V30.1246H36.6731V30.5092H37.0295ZM37.0295 45.82H36.6731V46.2046H37.0295V45.82ZM44.8074 45.0077L44.6288 44.6748L44.6276 44.6756L44.6265 44.6763L44.8074 45.0077ZM42.0475 29.9831C43.1405 29.9831 44.1418 30.2771 45.0588 30.8646L45.4227 30.2031C44.3932 29.5434 43.2658 29.2138 42.0475 29.2138V29.9831ZM45.0609 30.8659C45.9965 31.4561 46.7354 32.2536 47.2823 33.2633L47.8978 32.8752C47.2889 31.7513 46.4619 30.8588 45.4205 30.2017L45.0609 30.8659ZM47.2836 33.2656C47.8279 34.2552 48.1004 35.3358 48.1004 36.5154H48.8132C48.8132 35.2006 48.5077 33.9838 47.8965 32.8729L47.2836 33.2656ZM48.1004 36.5154V39.8138H48.8132V36.5154H48.1004ZM48.1004 39.8138C48.1004 40.9934 47.8279 42.0833 47.2823 43.0906L47.8978 43.4786C48.5078 42.3525 48.8132 41.1286 48.8132 39.8138H48.1004ZM47.2836 43.0883C46.737 44.0817 45.9977 44.8723 45.0609 45.4633L45.4205 46.1275C46.4605 45.4713 47.2875 44.5881 47.8965 43.4809L47.2836 43.0883ZM45.0588 45.4646C44.1418 46.0521 43.1405 46.3461 42.0475 46.3461V47.1154C43.2658 47.1154 44.3932 46.7858 45.4227 46.1261L45.0588 45.4646ZM42.0475 46.3461H36.1856V47.1154H42.0475V46.3461ZM36.542 46.7308V29.5984H35.8292V46.7308H36.542ZM36.1856 29.9831H42.0475V29.2138H36.1856V29.9831ZM47.9692 36.5154C47.9692 35.3648 47.7018 34.2961 47.1672 33.3171L46.5531 33.7075C47.0221 34.5663 47.2565 35.4998 47.2565 36.5154H47.9692ZM47.1672 33.3171C46.6339 32.3402 45.905 31.5629 44.9859 30.9886L44.6288 31.6544C45.4432 32.1633 46.0829 32.8463 46.5531 33.7075L47.1672 33.3171ZM44.9882 30.9902C44.081 30.4133 43.0908 30.1246 42.0247 30.1246V30.8938C42.9657 30.8938 43.8307 31.1467 44.6265 31.6529L44.9882 30.9902ZM42.0247 30.1246H37.0295V30.8938H42.0247V30.1246ZM36.6731 30.5092V45.82H37.3859V30.5092H36.6731ZM37.0295 46.2046H42.0247V45.4354H37.0295V46.2046ZM42.0247 46.2046C43.0908 46.2046 44.081 45.9159 44.9882 45.339L44.6265 44.6763C43.8307 45.1825 42.9657 45.4354 42.0247 45.4354V46.2046ZM44.9859 45.3406C45.905 44.7663 46.6339 43.989 47.1672 43.0121L46.5531 42.6217C46.0829 43.4829 45.4432 44.166 44.6288 44.6748L44.9859 45.3406ZM47.1672 43.0121C47.7018 42.0331 47.9692 40.9644 47.9692 39.8138H47.2565C47.2565 40.8294 47.0221 41.7629 46.5531 42.6217L47.1672 43.0121ZM47.9692 39.8138V36.5154H47.2565V39.8138H47.9692ZM53.6169 29.5984V29.2138H53.2606V29.5984H53.6169ZM64.7933 29.5984H65.1497V29.2138H64.7933V29.5984ZM64.7933 30.5092V30.8938H65.1497V30.5092H64.7933ZM54.4609 30.5092V30.1246H54.1045V30.5092H54.4609ZM54.4609 37.4508H54.1045V37.8354H54.4609V37.4508ZM63.4476 37.4508H63.804V37.0661H63.4476V37.4508ZM63.4476 38.3615V38.7461H63.804V38.3615H63.4476ZM54.4609 38.3615V37.9769H54.1045V38.3615H54.4609ZM54.4609 45.82H54.1045V46.2046H54.4609V45.82ZM64.7933 45.82H65.1497V45.4354H64.7933V45.82ZM64.7933 46.7308V47.1154H65.1497V46.7308H64.7933ZM53.6169 46.7308H53.2606V47.1154H53.6169V46.7308ZM53.6169 29.9831H64.7933V29.2138H53.6169V29.9831ZM64.4369 29.5984V30.5092H65.1497V29.5984H64.4369ZM64.7933 30.1246H54.4609V30.8938H64.7933V30.1246ZM54.1045 30.5092V37.4508H54.8173V30.5092H54.1045ZM54.4609 37.8354H63.4476V37.0661H54.4609V37.8354ZM63.0912 37.4508V38.3615H63.804V37.4508H63.0912ZM63.4476 37.9769H54.4609V38.7461H63.4476V37.9769ZM54.1045 38.3615V45.82H54.8173V38.3615H54.1045ZM54.4609 46.2046H64.7933V45.4354H54.4609V46.2046ZM64.4369 45.82V46.7308H65.1497V45.82H64.4369ZM64.7933 46.3461H53.6169V47.1154H64.7933V46.3461ZM53.9733 46.7308V29.5984H53.2606V46.7308H53.9733ZM75.5417 29.5984V29.2138H75.3029L75.212 29.4523L75.5417 29.5984ZM76.4312 29.5984L76.7609 29.4523L76.67 29.2138H76.4312V29.5984ZM82.9546 46.7308V47.1154H83.4863L83.2842 46.5846L82.9546 46.7308ZM82.0422 46.7308L81.7124 46.8763L81.8029 47.1154H82.0422V46.7308ZM79.8982 41.0692L80.228 40.9236L80.1375 40.6846H79.8982V41.0692ZM72.0747 41.0692V40.6846H71.8363L71.7452 40.9223L72.0747 41.0692ZM69.9079 46.7308V47.1154H70.1463L70.2373 46.8777L69.9079 46.7308ZM69.0183 46.7308L68.6886 46.5846L68.4866 47.1154H69.0183V46.7308ZM72.4168 40.1831L72.0868 40.0377L71.8863 40.5677H72.4168V40.1831ZM79.556 40.1831V40.5677H80.0878L79.8857 40.0369L79.556 40.1831ZM75.975 30.78L76.3047 30.6338L75.974 29.7654L75.645 30.6346L75.975 30.78ZM75.5417 29.9831H76.4312V29.2138H75.5417V29.9831ZM76.1015 29.7446L82.6249 46.8769L83.2842 46.5846L76.7609 29.4523L76.1015 29.7446ZM82.9546 46.3461H82.0422V47.1154H82.9546V46.3461ZM82.372 46.5852L80.228 40.9236L79.5683 41.2148L81.7124 46.8763L82.372 46.5852ZM79.8982 40.6846H72.0747V41.4538H79.8982V40.6846ZM71.7452 40.9223L69.5784 46.5838L70.2373 46.8777L72.4042 41.2161L71.7452 40.9223ZM69.9079 46.3461H69.0183V47.1154H69.9079V46.3461ZM69.348 46.8769L75.8713 29.7446L75.212 29.4523L68.6886 46.5846L69.348 46.8769ZM72.4168 40.5677H79.556V39.7984H72.4168V40.5677ZM79.8857 40.0369L76.3047 30.6338L75.6454 30.9261L79.2264 40.3292L79.8857 40.0369ZM75.645 30.6346L72.0868 40.0377L72.7468 40.3284L76.305 30.9254L75.645 30.6346ZM100.386 29.5984L100.73 29.6983L100.851 29.2138H100.386V29.5984ZM96.1206 46.7308V47.1154H96.394L96.4649 46.8306L96.1206 46.7308ZM95.2311 46.7308L94.887 46.8306L94.9579 47.1154H95.2311V46.7308ZM92.859 37.2046L93.2031 37.1048L92.859 35.7227L92.5149 37.1048L92.859 37.2046ZM90.4868 46.7308V47.1154H90.76L90.8309 46.8306L90.4868 46.7308ZM89.5973 46.7308L89.2532 46.8306L89.3239 47.1154H89.5973V46.7308ZM85.332 29.5984V29.2138H84.8673L84.9879 29.6983L85.332 29.5984ZM86.1988 29.5984L86.543 29.4988L86.4723 29.2138H86.1988V29.5984ZM90.0307 45.0323L89.6864 45.1319L90.0294 46.5133L90.3747 45.1325L90.0307 45.0323ZM92.4256 35.4569L92.7697 35.5571L92.7946 35.4571L92.7697 35.3571L92.4256 35.4569ZM90.9658 29.5984V29.2138H90.5009L90.6217 29.6983L90.9658 29.5984ZM91.8326 29.5984L92.1767 29.4986L92.1057 29.2138H91.8326V29.5984ZM93.2923 35.4569L92.9482 35.5567V35.5571L93.2923 35.4569ZM95.6873 45.0323L95.3432 45.1325L95.6885 46.5133L96.0315 45.1319L95.6873 45.0323ZM99.5192 29.5984V29.2138H99.2456L99.1749 29.4988L99.5192 29.5984ZM100.042 29.4986L95.7765 46.6309L96.4649 46.8306L100.73 29.6983L100.042 29.4986ZM96.1206 46.3461H95.2311V47.1154H96.1206V46.3461ZM95.5752 46.6309L93.2031 37.1048L92.5149 37.3044L94.887 46.8306L95.5752 46.6309ZM92.5149 37.1048L90.1427 46.6309L90.8309 46.8306L93.2031 37.3044L92.5149 37.1048ZM90.4868 46.3461H89.5973V47.1154H90.4868V46.3461ZM89.9416 46.6309L85.6761 29.4986L84.9879 29.6983L89.2532 46.8306L89.9416 46.6309ZM85.332 29.9831H86.1988V29.2138H85.332V29.9831ZM85.8545 29.6981L89.6864 45.1319L90.3749 44.9327L86.543 29.4988L85.8545 29.6981ZM90.3747 45.1325L92.7697 35.5571L92.0815 35.3567L89.6866 44.9321L90.3747 45.1325ZM92.7697 35.3571L91.3099 29.4986L90.6217 29.6983L92.0815 35.5567L92.7697 35.3571ZM90.9658 29.9831H91.8326V29.2138H90.9658V29.9831ZM91.4885 29.6983L92.9482 35.5567L93.6364 35.3571L92.1767 29.4986L91.4885 29.6983ZM92.9482 35.5571L95.3432 45.1325L96.0314 44.9321L93.6364 35.3567L92.9482 35.5571ZM96.0315 45.1319L99.8634 29.6981L99.1749 29.4988L95.343 44.9327L96.0315 45.1319ZM99.5192 29.9831H100.386V29.2138H99.5192V29.9831ZM121.016 29.5984L121.313 29.3858L121.207 29.2138H121.016V29.5984ZM126.65 38.7554L126.353 38.9681L126.651 39.4527L126.947 38.9669L126.65 38.7554ZM132.238 29.5984V29.2138H132.046L131.94 29.3869L132.238 29.5984ZM133.241 29.5984L133.539 29.8102L133.903 29.2138H133.241V29.5984ZM127.06 39.7154L126.763 39.5036L126.704 39.6V39.7154H127.06ZM127.06 46.7308V47.1154H127.417V46.7308H127.06ZM126.216 46.7308H125.86V47.1154H126.216V46.7308ZM126.216 39.7154H126.573V39.5996L126.513 39.5031L126.216 39.7154ZM120.012 29.5984V29.2138H119.349L119.715 29.8108L120.012 29.5984ZM120.719 29.8111L126.353 38.9681L126.947 38.5427L121.313 29.3858L120.719 29.8111ZM126.947 38.9669L132.535 29.81L131.94 29.3869L126.352 38.5438L126.947 38.9669ZM132.238 29.9831H133.241V29.2138H132.238V29.9831ZM132.944 29.3867L126.763 39.5036L127.358 39.9271L133.539 29.8102L132.944 29.3867ZM126.704 39.7154V46.7308H127.417V39.7154H126.704ZM127.06 46.3461H126.216V47.1154H127.06V46.3461ZM126.573 46.7308V39.7154H125.86V46.7308H126.573ZM126.513 39.5031L120.309 29.3861L119.715 29.8108L125.919 39.9277L126.513 39.5031ZM120.012 29.9831H121.016V29.2138H120.012V29.9831ZM143.853 38.5338L143.924 38.1569L143.923 38.1567L143.853 38.5338ZM140.682 37.6231L140.551 37.9806L140.555 37.9823L140.559 37.9836L140.682 37.6231ZM138.767 36.2446L138.493 36.4908L138.496 36.4954L138.5 36.4996L138.767 36.2446ZM138.767 31.4692L138.475 31.2477L138.474 31.2502L138.472 31.2525L138.767 31.4692ZM140.728 29.7954L140.588 29.4419L140.586 29.4429L140.728 29.7954ZM146.59 29.9431L146.426 30.2846L146.429 30.2865L146.433 30.2883L146.59 29.9431ZM149.487 34.94V35.3246H149.843V34.94H149.487ZM148.643 34.94H148.286V35.3246H148.643V34.94ZM146.179 30.6815L146.02 31.0256L146.023 31.0269L146.025 31.0283L146.179 30.6815ZM139.588 31.7646L139.317 31.5142L139.315 31.5167L139.313 31.5192L139.588 31.7646ZM139.565 35.8261L139.308 36.0933L139.311 36.0958L139.313 36.0981L139.565 35.8261ZM144.104 37.6723L144.031 38.0486L144.031 38.0488L144.104 37.6723ZM147.001 38.4846L146.881 38.8469L146.886 38.8486L146.89 38.8502L147.001 38.4846ZM148.757 39.74L148.487 39.9909L148.489 39.9933L148.49 39.9956L148.757 39.74ZM148.688 44.9338L148.407 44.6977L148.406 44.6986L148.688 44.9338ZM138.242 44.1954L137.933 44.3881L137.935 44.3915L137.937 44.395L138.242 44.1954ZM137.489 40.9954V40.6108H137.133V40.9954H137.489ZM138.333 40.9954H138.69V40.6108H138.333V40.9954ZM138.972 43.7523L138.664 43.9461L138.665 43.9486L138.667 43.9511L138.972 43.7523ZM140.865 45.5984L140.706 45.9425L140.708 45.9438L140.71 45.945L140.865 45.5984ZM147.251 45.1554L147.043 44.8434L147.042 44.8444L147.041 44.8452L147.251 45.1554ZM146.544 39.2477L146.432 39.6125L146.437 39.6144L146.442 39.6161L146.544 39.2477ZM143.923 38.1567C142.64 37.88 141.603 37.5809 140.806 37.2625L140.559 37.9836C141.404 38.3215 142.48 38.6298 143.783 38.9109L143.923 38.1567ZM140.814 37.2656C140.049 36.9383 139.46 36.51 139.033 35.9896L138.5 36.4996C139.015 37.1281 139.705 37.6186 140.551 37.9806L140.814 37.2656ZM139.04 35.9984C138.647 35.4896 138.439 34.8273 138.439 33.98H137.726C137.726 34.9706 137.973 35.8181 138.493 36.4908L139.04 35.9984ZM138.439 33.98C138.439 33.0983 138.649 32.3384 139.061 31.6859L138.472 31.2525C137.972 32.0442 137.726 32.9581 137.726 33.98H138.439ZM139.058 31.6908C139.487 31.0327 140.087 30.5169 140.871 30.1479L140.586 29.4429C139.697 29.8615 138.988 30.4617 138.475 31.2477L139.058 31.6908ZM140.868 30.1488C141.668 29.7792 142.599 29.5892 143.67 29.5892V28.82C142.521 28.82 141.491 29.0238 140.588 29.4419L140.868 30.1488ZM143.67 29.5892C144.682 29.5892 145.599 29.8227 146.426 30.2846L146.754 29.6015C145.818 29.0788 144.788 28.82 143.67 28.82V29.5892ZM146.433 30.2883C147.274 30.7346 147.931 31.3611 148.411 32.1692L149.011 31.7538C148.457 30.8225 147.7 30.1033 146.747 29.5979L146.433 30.2883ZM148.411 32.1692C148.889 32.9719 149.13 33.8915 149.13 34.94H149.843C149.843 33.7565 149.568 32.6906 149.011 31.7538L148.411 32.1692ZM149.487 34.5554H148.643V35.3246H149.487V34.5554ZM148.999 34.94C148.999 33.9058 148.763 32.9784 148.281 32.1717L147.682 32.5883C148.082 33.2584 148.286 34.0379 148.286 34.94H148.999ZM148.281 32.1717C147.803 31.3711 147.151 30.7583 146.334 30.3348L146.025 31.0283C146.728 31.3925 147.278 31.9119 147.682 32.5883L148.281 32.1717ZM146.339 30.3375C145.525 29.8983 144.625 29.6815 143.648 29.6815V30.4508C144.525 30.4508 145.314 30.6444 146.02 31.0256L146.339 30.3375ZM143.648 29.6815C142.789 29.6815 141.979 29.8277 141.223 30.1229L141.465 30.8463C142.138 30.5836 142.864 30.4508 143.648 30.4508V29.6815ZM141.223 30.1229C140.455 30.4225 139.817 30.8854 139.317 31.5142L139.858 32.015C140.271 31.4952 140.803 31.1046 141.465 30.8463L141.223 30.1229ZM139.313 31.5192C138.811 32.1736 138.57 32.9871 138.57 33.9308H139.283C139.283 33.135 139.483 32.5042 139.862 32.01L139.313 31.5192ZM138.57 33.9308C138.57 34.7979 138.807 35.5323 139.308 36.0933L139.821 35.559C139.472 35.1683 139.283 34.639 139.283 33.9308H138.57ZM139.313 36.0981C139.785 36.6073 140.391 36.9881 141.117 37.2494L141.342 36.5198C140.7 36.2888 140.197 35.9638 139.817 35.5542L139.313 36.0981ZM141.117 37.2494C141.82 37.5025 142.794 37.7686 144.031 38.0486L144.177 37.2959C142.95 37.0181 142.008 36.759 141.342 36.5198L141.117 37.2494ZM144.031 38.0488C145.272 38.3265 146.22 38.5931 146.881 38.8469L147.12 38.1223C146.413 37.8509 145.429 37.576 144.176 37.2958L144.031 38.0488ZM146.89 38.8502C147.529 39.075 148.059 39.4544 148.487 39.9909L149.027 39.489C148.512 38.844 147.871 38.3865 147.111 38.119L146.89 38.8502ZM148.49 39.9956C148.901 40.4944 149.13 41.2204 149.13 42.2261H149.843C149.843 41.0986 149.585 40.1671 149.023 39.4844L148.49 39.9956ZM149.13 42.2261C149.13 43.2198 148.884 44.0361 148.407 44.6977L148.97 45.17C149.557 44.3546 149.843 43.3658 149.843 42.2261H149.13ZM148.406 44.6986C147.933 45.3598 147.297 45.8613 146.484 46.1996L146.741 46.9173C147.662 46.5334 148.41 45.9521 148.97 45.169L148.406 44.6986ZM146.484 46.1996C145.662 46.5421 144.764 46.7154 143.784 46.7154V47.4846C144.843 47.4846 145.83 47.2969 146.741 46.9173L146.484 46.1996ZM143.784 46.7154C142.567 46.7154 141.513 46.4702 140.612 45.9917L140.297 46.6821C141.312 47.2211 142.478 47.4846 143.784 47.4846V46.7154ZM140.612 45.9917C139.71 45.5131 139.026 44.8475 138.547 43.9958L137.937 44.395C138.492 45.3811 139.283 46.1434 140.297 46.6821L140.612 45.9917ZM138.55 44.0027C138.083 43.1321 137.846 42.1333 137.846 40.9954H137.133C137.133 42.2534 137.397 43.3879 137.933 44.3881L138.55 44.0027ZM137.489 41.38H138.333V40.6108H137.489V41.38ZM137.977 40.9954C137.977 42.1033 138.202 43.0911 138.664 43.9461L139.28 43.5584C138.89 42.8381 138.69 41.9881 138.69 40.9954H137.977ZM138.667 43.9511C139.145 44.806 139.829 45.4694 140.706 45.9425L141.024 45.2544C140.259 44.8413 139.68 44.274 139.277 43.5534L138.667 43.9511ZM140.71 45.945C141.59 46.4019 142.618 46.6231 143.784 46.6231V45.8538C142.701 45.8538 141.782 45.6483 141.02 45.2519L140.71 45.945ZM143.784 46.6231C145.241 46.6231 146.476 46.2463 147.462 45.4656L147.041 44.8452C146.203 45.5084 145.126 45.8538 143.784 45.8538V46.6231ZM147.46 45.4673C148.482 44.6721 148.999 43.5708 148.999 42.2015H148.286C148.286 43.3267 147.877 44.1946 147.043 44.8434L147.46 45.4673ZM148.999 42.2015C148.999 41.2867 148.787 40.5236 148.311 39.9706L147.789 40.494C148.104 40.86 148.286 41.4098 148.286 42.2015H148.999ZM148.311 39.9706C147.868 39.4563 147.31 39.094 146.647 38.8792L146.442 39.6161C146.995 39.7952 147.44 40.0892 147.789 40.494L148.311 39.9706ZM146.657 38.8829C146.043 38.6619 145.128 38.4202 143.924 38.1569L143.782 38.9108C144.98 39.1727 145.86 39.4069 146.432 39.6125L146.657 38.8829Z" fill="#1E3240"/>
</g>
<path d="M103.95 36.9856V46.101C103.95 46.3342 104.04 46.5579 104.2 46.7231C104.36 46.8881 104.577 46.9812 104.804 46.9814L107.655 46.9858C107.767 46.986 107.878 46.9633 107.982 46.9192C108.085 46.8752 108.179 46.8106 108.259 46.729C108.338 46.6475 108.401 46.5508 108.444 46.444C108.486 46.3375 108.509 46.2233 108.509 46.1079V44.2367C108.509 44.1212 108.531 44.0069 108.574 43.9002C108.617 43.7937 108.679 43.6967 108.759 43.615C108.838 43.5333 108.932 43.4687 109.035 43.4244C109.139 43.3802 109.25 43.3575 109.362 43.3575H112.209C112.321 43.3575 112.432 43.3802 112.535 43.4244C112.639 43.4687 112.733 43.5333 112.812 43.615C112.892 43.6967 112.955 43.7937 112.997 43.9002C113.04 44.0069 113.062 44.1212 113.062 44.2367V46.1694C113.062 46.2842 113.084 46.3981 113.128 46.504C113.17 46.6102 113.234 46.7064 113.313 46.7869C113.392 46.8677 113.486 46.9314 113.59 46.9742C113.693 47.0173 113.804 47.0387 113.916 47.0371L116.773 46.9987C117 46.9956 117.217 46.9004 117.377 46.7337C117.536 46.5669 117.626 46.3421 117.626 46.1079V37.9431C117.626 37.3752 117.431 36.8256 117.076 36.3915L111.338 29.3779C111.27 29.2952 111.186 29.2287 111.091 29.1831C110.996 29.1373 110.892 29.1135 110.787 29.1133C110.682 29.1131 110.578 29.1364 110.483 29.1816C110.388 29.2267 110.303 29.2929 110.235 29.3754L104.503 36.3158C104.134 36.7621 103.759 37.2031 103.378 37.6381L101.367 39.9327" stroke="#1E3240" stroke-width="1.3" stroke-linecap="square" stroke-linejoin="round"/>
<path d="M117.077 36.3946L119.951 39.9327" stroke="#1E3240" stroke-width="1.3" stroke-linecap="square" stroke-linejoin="round"/>
</svg>
